REM DIRINDEX 1\6,1\2\7,1\2\8,1\2\9,1\3\10,1\3\11,1\4\12,1\4\13,1\4\14,1\5\15,1\5\16,1\5\17
REM DIRNAME cjc040,folder01,folder02,folder03,folder04,folder05,folder06,folder07,folder08,folder09,folder10,folder11,folder12,folder13,folder14,folder15,folder16
TITLE ""
FILE "P2Q_t2_0001-0017.mp3" MP3
  TRACK 01 AUDIO
    TITLE "6:cjc040_3828"
    INDEX 01 00:00:00
  TRACK 02 AUDIO
    TITLE "0:"
    INDEX 01 00:05:50
  TRACK 03 AUDIO
    TITLE "7:cjc040_3829"
    INDEX 01 00:06:61
  TRACK 04 AUDIO
    TITLE "0:"
    INDEX 01 00:07:54
  TRACK 05 AUDIO
    TITLE "8:cjc040_3830"
    INDEX 01 00:08:36
  TRACK 06 AUDIO
    TITLE "0:"
    INDEX 01 00:11:50
  TRACK 07 AUDIO
    TITLE "9:cjc040_3831"
    INDEX 01 00:12:30
  TRACK 08 AUDIO
    TITLE "0:"
    INDEX 01 00:13:22
  TRACK 09 AUDIO
    TITLE "7:cjc040_3832"
    INDEX 01 00:15:01
  TRACK 10 AUDIO
    TITLE "0:"
    INDEX 01 00:16:16
  TRACK 11 AUDIO
    TITLE "8:cjc040_3833"
    INDEX 01 00:16:71
  TRACK 12 AUDIO
    TITLE "0:"
    INDEX 01 00:18:37
  TRACK 13 AUDIO
    TITLE "9:cjc040_3834"
    INDEX 01 00:19:03
  TRACK 14 AUDIO
    TITLE "0:"
    INDEX 01 00:20:20
  TRACK 15 AUDIO
    TITLE "7:cjc040_3835"
    INDEX 01 00:21:72
  TRACK 16 AUDIO
    TITLE "0:"
    INDEX 01 00:23:06
  TRACK 17 AUDIO
    TITLE "8:cjc040_3836"
    INDEX 01 00:23:57
  TRACK 18 AUDIO
    TITLE "0:"
    INDEX 01 00:30:34
  TRACK 19 AUDIO
    TITLE "9:cjc040_3837"
    INDEX 01 00:31:06
  TRACK 20 AUDIO
    TITLE "0:"
    INDEX 01 00:32:19
  TRACK 21 AUDIO
    TITLE "7:cjc040_3838"
    INDEX 01 00:33:73
  TRACK 22 AUDIO
    TITLE "0:"
    INDEX 01 00:35:06
  TRACK 23 AUDIO
    TITLE "8:cjc040_3839"
    INDEX 01 00:35:57
  TRACK 24 AUDIO
    TITLE "0:"
    INDEX 01 00:37:16
  TRACK 25 AUDIO
    TITLE "9:cjc040_3840"
    INDEX 01 00:37:65
  TRACK 26 AUDIO
    TITLE "0:"
    INDEX 01 00:39:05
  TRACK 27 AUDIO
    TITLE "7:cjc040_3841"
    INDEX 01 00:40:56
  TRACK 28 AUDIO
    TITLE "0:"
    INDEX 01 00:42:00
  TRACK 29 AUDIO
    TITLE "8:cjc040_3842"
    INDEX 01 00:42:45
  TRACK 30 AUDIO
    TITLE "0:"
    INDEX 01 00:45:55
  TRACK 31 AUDIO
    TITLE "9:cjc040_3843"
    INDEX 01 00:46:39
  TRACK 32 AUDIO
    TITLE "0:"
    INDEX 01 00:47:58
  TRACK 33 AUDIO
    TITLE "7:cjc040_3844"
    INDEX 01 00:49:27
  TRACK 34 AUDIO
    TITLE "0:"
    INDEX 01 00:50:37
  TRACK 35 AUDIO
    TITLE "8:cjc040_3845"
    INDEX 01 00:51:18
  TRACK 36 AUDIO
    TITLE "0:"
    INDEX 01 00:55:69
  TRACK 37 AUDIO
    TITLE "9:cjc040_3846"
    INDEX 01 00:56:41
  TRACK 38 AUDIO
    TITLE "0:"
    INDEX 01 00:57:56
  TRACK 39 AUDIO
    TITLE "7:cjc040_3847"
    INDEX 01 00:59:38
  TRACK 40 AUDIO
    TITLE "0:"
    INDEX 01 01:00:41
  TRACK 41 AUDIO
    TITLE "8:cjc040_3848"
    INDEX 01 01:01:25
  TRACK 42 AUDIO
    TITLE "0:"
    INDEX 01 01:02:50
  TRACK 43 AUDIO
    TITLE "9:cjc040_3849"
    INDEX 01 01:03:31
  TRACK 44 AUDIO
    TITLE "0:"
    INDEX 01 01:04:41
  TRACK 45 AUDIO
    TITLE "7:cjc040_3850"
    INDEX 01 01:06:22
  TRACK 46 AUDIO
    TITLE "0:"
    INDEX 01 01:07:41
  TRACK 47 AUDIO
    TITLE "8:cjc040_3851"
    INDEX 01 01:08:23
  TRACK 48 AUDIO
    TITLE "0:"
    INDEX 01 01:10:65
  TRACK 49 AUDIO
    TITLE "9:cjc040_3852"
    INDEX 01 01:11:37
  TRACK 50 AUDIO
    TITLE "0:"
    INDEX 01 01:12:60
  TRACK 51 AUDIO
    TITLE "7:cjc040_3853"
    INDEX 01 01:14:41
  TRACK 52 AUDIO
    TITLE "0:"
    INDEX 01 01:15:52
  TRACK 53 AUDIO
    TITLE "8:cjc040_3854"
    INDEX 01 01:16:30
  TRACK 54 AUDIO
    TITLE "0:"
    INDEX 01 01:17:49
  TRACK 55 AUDIO
    TITLE "9:cjc040_3855"
    INDEX 01 01:18:23
  TRACK 56 AUDIO
    TITLE "0:"
    INDEX 01 01:19:38
  TRACK 57 AUDIO
    TITLE "7:cjc040_3856"
    INDEX 01 01:21:25
  TRACK 58 AUDIO
    TITLE "0:"
    INDEX 01 01:22:35
  TRACK 59 AUDIO
    TITLE "8:cjc040_3857"
    INDEX 01 01:23:16
  TRACK 60 AUDIO
    TITLE "0:"
    INDEX 01 01:27:50
  TRACK 61 AUDIO
    TITLE "9:cjc040_3858"
    INDEX 01 01:28:22
  TRACK 62 AUDIO
    TITLE "0:"
    INDEX 01 01:29:33
  TRACK 63 AUDIO
    TITLE "7:cjc040_3859"
    INDEX 01 01:31:20
  TRACK 64 AUDIO
    TITLE "0:"
    INDEX 01 01:32:39
  TRACK 65 AUDIO
    TITLE "8:cjc040_3860"
    INDEX 01 01:33:17
  TRACK 66 AUDIO
    TITLE "0:"
    INDEX 01 01:34:46
  TRACK 67 AUDIO
    TITLE "9:cjc040_3861"
    INDEX 01 01:35:24
  TRACK 68 AUDIO
    TITLE "0:"
    INDEX 01 01:36:47
  TRACK 69 AUDIO
    TITLE "7:cjc040_3862"
    INDEX 01 01:38:32
  TRACK 70 AUDIO
    TITLE "0:"
    INDEX 01 01:39:41
  TRACK 71 AUDIO
    TITLE "8:cjc040_3863"
    INDEX 01 01:40:21
  TRACK 72 AUDIO
    TITLE "0:"
    INDEX 01 01:43:25
  TRACK 73 AUDIO
    TITLE "9:cjc040_3864"
    INDEX 01 01:44:01
  TRACK 74 AUDIO
    TITLE "0:"
    INDEX 01 01:45:16
  TRACK 75 AUDIO
    TITLE "7:cjc040_3865"
    INDEX 01 01:46:66
  TRACK 76 AUDIO
    TITLE "0:"
    INDEX 01 01:48:01
  TRACK 77 AUDIO
    TITLE "8:cjc040_3866"
    INDEX 01 01:48:58
  TRACK 78 AUDIO
    TITLE "0:"
    INDEX 01 01:51:54
  TRACK 79 AUDIO
    TITLE "9:cjc040_3867"
    INDEX 01 01:52:34
  TRACK 80 AUDIO
    TITLE "0:"
    INDEX 01 01:53:47
  TRACK 81 AUDIO
    TITLE "7:cjc040_3868"
    INDEX 01 01:55:30
  TRACK 82 AUDIO
    TITLE "0:"
    INDEX 01 01:56:24
  TRACK 83 AUDIO
    TITLE "8:cjc040_3869"
    INDEX 01 01:57:09
  TRACK 84 AUDIO
    TITLE "0:"
    INDEX 01 02:01:72
  TRACK 85 AUDIO
    TITLE "9:cjc040_3870"
    INDEX 01 02:02:46
  TRACK 86 AUDIO
    TITLE "0:"
    INDEX 01 02:03:51
  TRACK 87 AUDIO
    TITLE "7:cjc040_3871"
    INDEX 01 02:05:38
  TRACK 88 AUDIO
    TITLE "0:"
    INDEX 01 02:06:48
  TRACK 89 AUDIO
    TITLE "8:cjc040_3872"
    INDEX 01 02:07:33
  TRACK 90 AUDIO
    TITLE "0:"
    INDEX 01 02:08:54
  TRACK 91 AUDIO
    TITLE "9:cjc040_3873"
    INDEX 01 02:09:32
  TRACK 92 AUDIO
    TITLE "0:"
    INDEX 01 02:10:45
  TRACK 93 AUDIO
    TITLE "7:cjc040_3874"
    INDEX 01 02:12:23
  TRACK 94 AUDIO
    TITLE "0:"
    INDEX 01 02:13:34
  TRACK 95 AUDIO
    TITLE "8:cjc040_3875"
    INDEX 01 02:14:12
  TRACK 96 AUDIO
    TITLE "0:"
    INDEX 01 02:15:52
  TRACK 97 AUDIO
    TITLE "9:cjc040_3876"
    INDEX 01 02:16:26
  TRACK 98 AUDIO
    TITLE "0:"
    INDEX 01 02:17:40
  TRACK 99 AUDIO
    TITLE "7:cjc040_3877"
    INDEX 01 02:19:23
  TRACK 100 AUDIO
    TITLE "0:"
    INDEX 01 02:20:38
  TRACK 101 AUDIO
    TITLE "8:cjc040_3878"
    INDEX 01 02:21:16
  TRACK 102 AUDIO
    TITLE "0:"
    INDEX 01 02:23:68
  TRACK 103 AUDIO
    TITLE "9:cjc040_3879"
    INDEX 01 02:24:47
  TRACK 104 AUDIO
    TITLE "0:"
    INDEX 01 02:25:63
